<svg xmlns="http://www.w3.org/2000/svg" width="800" height="500" viewBox="0 0 800 500">
  <rect fill="#e9bb84" width="800" height="500"/>
  <rect fill="#d78033" x="100" y="200" width="120" height="200" rx="4"/>
  <rect fill="#c96828" x="130" y="230" width="30" height="50" rx="2"/>
  <rect fill="#c96828" x="170" y="230" width="30" height="50" rx="2"/>
  <rect fill="#a74f23" x="140" y="310" width="40" height="90" rx="2"/>
  <polygon fill="#864023" points="100,200 160,140 220,200"/>
  <rect fill="#d78033" x="300" y="150" width="200" height="250" rx="4"/>
  <rect fill="#c96828" x="330" y="180" width="40" height="60" rx="2"/>
  <rect fill="#c96828" x="390" y="180" width="40" height="60" rx="2"/>
  <rect fill="#c96828" x="330" y="260" width="40" height="60" rx="2"/>
  <rect fill="#c96828" x="390" y="260" width="40" height="60" rx="2"/>
  <rect fill="#a74f23" x="370" y="330" width="60" height="70" rx="2"/>
  <polygon fill="#864023" points="290,150 400,70 510,150"/>
  <rect fill="#d78033" x="580" y="180" width="120" height="220" rx="4"/>
  <circle fill="#c96828" cx="640" cy="230" r="25"/>
  <rect fill="#a74f23" x="610" y="310" width="60" height="90" rx="2"/>
  <polygon fill="#864023" points="570,180 640,120 710,180"/>
  <rect fill="#6d361f" y="400" width="800" height="100"/>
  <text x="400" y="460" text-anchor="middle" fill="#f9edda" font-family="Inter,sans-serif" font-size="24" font-weight="600">Historia Wrocławia</text>
</svg>
